<svg id="Layer_1" data-name="Layer 1" xmlns="http://www.w3.org/2000/svg" xmlns:xlink="http://www.w3.org/1999/xlink" viewBox="0 0 577.30933 577.09453"><defs><symbol id="Logo" data-name="Logo" viewBox="0 0 374.609 374.469"><path d="M110.27141,211.38309c-6.72414,2.76537-13.23529,2.4669-19.49832-1.35488.341-.42469,1.5922.37837,1.26637-.9389q-.67956.44928-1.3591.89859c-3.25046-.81338-5.4615.45779-7.7815,2.86321C68.11762,228.17625,53.165,243.33644,38.2367,258.51939c-9.57208,9.73535-21.45084,7.21824-26.101-5.62614-17.36228-47.95714-16.3474-95.68934,4.677-142.03915C40.72455,58.13869,81.35059,23.30142,137.00654,7.40083c42.95726-12.27265,85.59822-9.38472,126.39435,9.434,60.97195,28.12547,97.70774,75.865,108.55717,141.84135,9.25226,56.2638-5.87777,106.93833-42.87429,150.4628-31.805,37.41692-72.757,58.802-121.39494,64.12246-48.86559,5.34532-93.42592-7.08658-132.97619-36.56792-10.30815-7.6839-11.03367-16.35514-1.76144-25.61609,26.93445-26.90168,54.09618-53.57573,81.13931-80.36878q31.32237-31.0327,62.59582-62.11477a9.79671,9.79671,0,0,0,2.86548-7.04355c.83064-16.23246,12.57952-27.79848,28.19181-27.99155,15.25952-.18869,27.28174,11.47269,28.40348,27.77365a8.65952,8.65952,0,0,0,2.8234,5.88574q28.02637,27.9518,56.03571,55.92067c1.30834,1.30483,2.56858,3.05276,4.78354,2.11989,2.01158-.84721,2.2305-2.89135,2.59469-4.73388,8.25853-41.783,1.79031-81.13889-20.86566-117.23C299.4517,68.142,267.89678,45.25355,227.761,34.33061,158.9251,15.5969,83.97153,47.32783,49.29764,109.77994,30.64153,143.382,25.00835,179.077,31.56319,216.81848a35.25391,35.25391,0,0,0,1.193,4.943c1.03911,3.16913,3.09687,3.8618,5.48018,1.50328q17.27426-17.09447,34.37512-34.36393c1.57357-1.58086,1.55248-3.72739,1.77832-5.80581,1.54021-14.17451,12.79306-24.898,26.56808-25.3959a28.08919,28.08919,0,0,1,28.218,22.91084,13.39671,13.39671,0,0,0,4.13975,7.65283c5.68749,5.49871,11.10364,11.279,16.819,16.74745,3.24289,3.1028,3.67078,5.78533.203,8.973-3.32741,3.05863-6.49507,6.29959-9.61419,9.57351-2.64313,2.77437-4.99877,2.80685-7.63473-.044-2.68418-2.90312-5.945-5.331-8.31963-8.4494-3.96-5.20042-8.398-7.05588-14.3784-3.7082-4.66284-3.04229-9.61241-.83244-14.45426-.6224Q103.10391,211.05788,110.27141,211.38309Zm82.08443,134.49146c28.86919-.185,59.9242-10.07136,87.74078-29.94041,20.60214-14.71587,36.41245-33.60223,48.23323-55.9196,1.608-3.036,2.49422-5.71163-.45864-8.644q-31.074-30.85788-61.96316-61.90134c-2.1765-2.18694-4.26255-2.75651-7.05343-1.54534a26.46763,26.46763,0,0,1-18.77508,1.1755c-3.91271-1.214-6.25542.21336-8.88918,2.82342-12.705,12.59049-25.572,25.01762-38.39051,37.49358q-43.71544,42.54738-87.42179,85.1041c-4.90739,4.78718-4.74863,5.60262,1.00163,9.03569C131.2194,338.38624,158.10981,345.801,192.35584,345.87455ZM114.6693,185.42317A12.80962,12.80962,0,0,0,102.33775,172.593a12.78481,12.78481,0,0,0-.6671,25.56086A12.65627,12.65627,0,0,0,114.6693,185.42317Zm133.8928-10.01048c6.388.10443,12.75036-6.15537,12.80715-12.60075a13.18857,13.18857,0,0,0-12.85566-13.03185,13.02217,13.02217,0,0,0-12.74733,12.49954C235.50958,169.0548,241.59322,175.29876,248.5621,175.41269ZM2.55362,172.72922l-.5356-.00117V201.756l.5356.00123Z" style="fill:#b5cf35"/><path d="M110.27141,211.38309q-7.1675-.32523-14.335-.65041c4.84185-.21,9.79142-2.41989,14.45426.6224Z" style="fill:#b5cf35"/><ellipse cx="2.28582" cy="187.24261" rx="0.37873" ry="20.52591" style="fill:#c5da49"/><path d="M90.68036,209.9879q.67953-.4493,1.3591-.89859c.32583,1.31727-.9254.51421-1.26637.9389Z" style="fill:#b5cf35"/></symbol></defs><use width="374.60869" height="374.46931" transform="translate(0 0) scale(1.5411)" xlink:href="#Logo"/></svg>